<svg xmlns="http://www.w3.org/2000/svg" viewBox="0 0 124 62"><defs><style>.cls-3{fill:none;stroke:#333;stroke-linecap:round;stroke-linejoin:round;stroke-width:2px}</style></defs><g id="Layer_2" data-name="Layer 2"><g id="Products_-_Cart_Button" data-name="Products - Cart Button"><g id="Products_-_Cart_Button-2" data-name="Products - Cart Button"><path d="M113.21 12h2.47a6.32 6.32 0 0 1 6.32 6.32v35.36a6.32 6.32 0 0 1-6.32 6.32H8.32A6.32 6.32 0 0 1 2 53.68V18.32A6.32 6.32 0 0 1 8.32 12H72" style="stroke-width:4px;stroke-miterlimit:10;stroke-linecap:round;fill:none;stroke:#333"/><circle cx="80" cy="12" r="2" style="fill:#333"/><path class="cls-3" d="M49 27h4l4 15h12l3-12H62M59 47h1M65 47h1"/><path d="M88.15 1h4a1.15 1.15 0 0 1 1.11.84c.28 1 1.13 2.49 3.75 2.49s3.47-1.5 3.75-2.49a1.15 1.15 0 0 1 1.1-.84h4A1.16 1.16 0 0 1 107 2.15V6a1.16 1.16 0 0 1-1.15 1.15h-1a1.15 1.15 0 0 0-1.15 1.15v11.55a1.16 1.16 0 0 1-1.19 1.15h-11a1.16 1.16 0 0 1-1.16-1.15V8.26a1.15 1.15 0 0 0-1.15-1.15h-1A1.16 1.16 0 0 1 87 6V2.15A1.16 1.16 0 0 1 88.15 1z" style="stroke-width:2px;stroke-miterlimit:10;fill:none;stroke:#333"/></g></g></g></svg>
